<svg xmlns="http://www.w3.org/2000/svg" xmlns:xlink="http://www.w3.org/1999/xlink" width="274.649" height="477.962" viewBox="0 0 274.649 477.962"><defs><style>.a,.e{fill:#fff;}.a,.n{stroke:#dfe7f2;}.b{clip-path:url(#a);}.c{fill:#fefefe;}.d{fill:#dfe7f2;}.f{opacity:0.054;}.g{fill:rgba(255,255,255,0.16);}.h{fill:#f0f0f0;}.i{fill:#035a81;opacity:0.15;}.j{fill:#ecf1f8;}.k,.m{fill:#082c5c;}.k{font-size:12px;font-family:Sarabun-Regular, Sarabun;}.l{fill:#3e8ef7;text-decoration:underline;}.m{font-size:20px;font-family:FCIconicRegular, FC Iconic;}.n{fill:none;}</style><clipPath id="a"><rect class="a" width="274.649" height="477.962" rx="22"/></clipPath></defs><g transform="translate(27 63)"><g class="b" transform="translate(-27 -63)"><g transform="translate(-0.061 0.015)"><path class="c" d="M0,278.214Q0,159.338.021,40.462C.027,27.774,5,17.184,14.276,8.625A31.2,31.2,0,0,1,30.994.425a33.842,33.842,0,0,1,5.05-.364Q112.425.035,188.806.048c16.034,0,32.07.127,48.1-.045,10.432-.112,18.926,3.836,25.869,11.369a42.74,42.74,0,0,1,11.358,25.491c.122,1.271.079,2.559.079,3.84q0,146.539,0,293.078,0,91.136.055,182.271c.033,15.032-10.031,30.742-23.827,37.033a32.541,32.541,0,0,1-13.7,2.936q-82.068-.026-164.136-.012c-11.424,0-22.849-.11-34.271.036A34.164,34.164,0,0,1,14.86,547.3,41.589,41.589,0,0,1,.542,522.535a39.832,39.832,0,0,1-.519-6.877Q-.022,458.717,0,401.776,0,340,0,278.214" transform="translate(0.154 0.154)"/><rect class="d" width="274.657" height="556.23" rx="26"/><path class="e" d="M.024,217.3q0-89.908,0-179.814c0-5.883-.1-11.769.075-17.649C.371,10.635,8.547,2.476,19.178.562A32.655,32.655,0,0,1,24.986.038Q36.624.04,48.26.033A4.064,4.064,0,0,1,51.25.96a2.681,2.681,0,0,1,.825,1.989A18.022,18.022,0,0,0,52.5,7.117C53.85,12.3,59.114,16,65.407,16.044c9.558.065,19.119.023,28.679.024q37.839,0,75.679,0a22.113,22.113,0,0,0,3.885-.221c6.057-1.044,10.5-5.431,10.8-10.652.05-.8.039-1.609.108-2.41.147-1.707,1.376-2.732,3.408-2.736,8.309-.015,16.62-.123,24.926.039,10.961.216,19.931,6.205,23.017,15.1a15.507,15.507,0,0,1,.861,5.132q-.015,21.209,0,42.415,0,174.733.015,349.474a19.493,19.493,0,0,1-1.487,8.6q-5.287,11.163-19.277,13.31a32.064,32.064,0,0,1-4.938.254H30.444c-2.2,0-4.407.025-6.607-.038-11.8-.317-21.469-7.455-23.486-17.3a21.329,21.329,0,0,1-.321-4.305Q.023,347.008.027,281.3v-64Z" transform="translate(18.962 21.217)"/><g transform="translate(101.685 16.009)"><rect class="f" width="35.655" height="5.208" rx="2.604" transform="translate(16.789 2.604)"/><g transform="translate(0 0)"><ellipse class="g" cx="5.208" cy="5.208" rx="5.208" ry="5.208" transform="translate(60.699 0)"/><ellipse class="h" cx="3.451" cy="3.451" rx="3.451" ry="3.451" transform="translate(0 1.757)"/><ellipse class="i" cx="2.232" cy="2.232" rx="2.232" ry="2.232" transform="translate(63.675 2.976)"/></g></g></g></g><rect class="j" width="208.067" height="83.033" rx="8" transform="translate(7.673 41.932)"/><text class="k" transform="translate(18.623 55.619)"><tspan x="0" y="13">ส่วนลดเดือนเกิด 10% สำหรับคุณ</tspan><tspan x="0" y="31">พนิดา ใช้ได้ถึง 30 เม.ย. 64 คลิก </tspan><tspan class="l" x="0" y="49">https://od.th/wdsplm</tspan><tspan y="49"> </tspan></text><text class="m" transform="translate(107.532 5.397)"><tspan x="-24.31" y="0">MySMS</tspan></text><line class="n" x1="243.476" transform="translate(-11.472 23.247)"/></g></svg>